<?xml version="1.0" encoding="UTF-8"?>
<svg width="800px" height="254px" viewBox="0 0 800 254" version="1.1" xmlns="http://www.w3.org/2000/svg" xmlns:xlink="http://www.w3.org/1999/xlink">
    <!-- Generator: Sketch 41.1 (35376) - http://www.bohemiancoding.com/sketch -->
    <title>scanabc</title>
    <desc>Created with Sketch.</desc>
    <defs></defs>
    <g id="Page-1" stroke="none" stroke-width="1" fill="none" fill-rule="evenodd">
        <g id="scanabc" fill="#FFFFFF">
            <g id="Combined-Shape">
                <g id="Page-1">
                    <g id="ÅÄÖ">
                        <path d="M181.687618,63.6702144 L365.790811,63.6702144 L282.882951,254 L264.053596,254 L181.687618,63.6702144 Z M147.904632,63.6702144 L0,63.6702144 L0,254 L64.9967721,254 L147.904632,63.6702144 Z M89.1700773,254 L239.466408,254 L220.734753,209.680616 L107.661583,209.680616 L89.1700773,254 Z M399.573797,63.6702144 L544.302882,63.6702144 C538.684028,67.4575732 533.475695,71.7314545 528.677843,76.491883 C518.48267,86.6075336 510.50172,98.6133024 504.734753,112.50955 C498.967787,126.405797 496.084347,141.630134 496.084347,158.183016 C496.084347,174.735899 498.967787,189.960236 504.734753,203.856483 C510.50172,217.75273 518.48267,229.758499 528.677843,239.87415 C534.034779,245.189302 539.903436,249.897907 546.283867,254 L481.939775,254 L399.573797,63.6702144 Z M307.056256,254 L457.352587,254 L438.620932,209.680616 L325.547762,209.680616 L307.056256,254 Z M675.865812,63.6702144 L799.975623,63.6702144 L799.975623,254 L673.884827,254 C680.265258,249.897907 686.133915,245.189302 691.490851,239.87415 C701.686024,229.758499 709.666974,217.75273 715.43394,203.856483 C721.200907,189.960236 724.084347,174.735899 724.084347,158.183016 C724.084347,141.630134 721.200907,126.405797 715.43394,112.50955 C709.666974,98.6133024 701.686024,86.6075336 691.490851,76.491883 C686.692999,71.7314545 681.484666,67.4575732 675.865812,63.6702144 Z M116.003046,189.449416 L212.39329,189.449416 L164.198168,74.192883 L116.003046,189.449416 Z M194.601547,29.6358164 C194.601547,33.7229479 193.829197,37.5545763 192.284473,41.1308164 C190.73975,44.7070565 188.57717,47.8234475 185.796669,50.480083 C183.016167,53.1367185 179.823787,55.1802537 176.219433,56.6107497 C172.615079,58.0412457 168.856309,58.756483 164.94301,58.756483 C160.823748,58.756483 157.013488,58.0412457 153.512116,56.6107497 C150.010743,55.1802537 146.869853,53.1367185 144.089351,50.480083 C141.30885,47.8234475 139.14627,44.7070565 137.601547,41.1308164 C136.056823,37.5545763 135.284473,33.7229479 135.284473,29.6358164 C135.284473,25.5486848 136.056823,21.7170565 137.601547,18.1408164 C139.14627,14.5645763 141.30885,11.4992736 144.089351,8.94481636 C146.869853,6.39035915 150.010743,4.34682403 153.512116,2.8141497 C157.013488,1.28147537 160.823748,0.515149698 164.94301,0.515149698 C168.856309,0.515149698 172.615079,1.28147537 176.219433,2.8141497 C179.823787,4.34682403 183.016167,6.39035915 185.796669,8.94481636 C188.57717,11.4992736 190.73975,14.5645763 192.284473,18.1408164 C193.829197,21.7170565 194.601547,25.5486848 194.601547,29.6358164 Z M183.479595,29.6358164 C183.479595,24.5269019 181.677445,20.2354782 178.073091,16.7614164 C174.468737,13.2873545 170.092087,11.5503497 164.94301,11.5503497 C159.793933,11.5503497 155.417283,13.2873545 151.812929,16.7614164 C148.208575,20.2354782 146.406425,24.5269019 146.406425,29.6358164 C146.406425,34.7447308 148.208575,39.0361545 151.812929,42.5102164 C155.417283,45.9842782 159.793933,47.721283 164.94301,47.721283 C170.092087,47.721283 174.468737,45.9842782 178.073091,42.5102164 C181.677445,39.0361545 183.479595,34.7447308 183.479595,29.6358164 Z M333.889225,189.449416 L430.279469,189.449416 L382.084347,74.192883 L333.889225,189.449416 Z M337.300718,30.5554164 C337.300718,26.4682848 338.742438,22.84101 341.625921,19.673483 C344.509404,16.5059561 348.319664,14.9222164 353.056815,14.9222164 C357.793966,14.9222164 361.604226,16.5059561 364.48771,19.673483 C367.371193,22.84101 368.812913,26.4682848 368.812913,30.5554164 C368.812913,34.6425479 367.371193,38.2698227 364.48771,41.4373497 C361.604226,44.6048766 357.793966,46.1886164 353.056815,46.1886164 C348.319664,46.1886164 344.509404,44.6048766 341.625921,41.4373497 C338.742438,38.2698227 337.300718,34.6425479 337.300718,30.5554164 Z M396.604672,30.5554164 C396.604672,26.4682848 398.046392,22.84101 400.929875,19.673483 C403.813359,16.5059561 407.623619,14.9222164 412.36077,14.9222164 C417.097921,14.9222164 420.908181,16.5059561 423.791664,19.673483 C426.675147,22.84101 428.116867,26.4682848 428.116867,30.5554164 C428.116867,34.6425479 426.675147,38.2698227 423.791664,41.4373497 C420.908181,44.6048766 417.097921,46.1886164 412.36077,46.1886164 C407.623619,46.1886164 403.813359,44.6048766 400.929875,41.4373497 C398.046392,38.2698227 396.604672,34.6425479 396.604672,30.5554164 Z M700.604672,158.183016 C700.604672,145.512909 698.545072,133.456051 694.42581,122.012083 C690.306549,110.568115 684.333709,100.503704 676.507111,91.8185497 C668.680514,83.1333952 659.154864,76.2364641 647.929875,71.1275497 C636.704887,66.0186353 624.089837,63.4642164 610.084347,63.4642164 C596.078857,63.4642164 583.463807,66.0186353 572.238819,71.1275497 C561.01383,76.2364641 551.48818,83.1333952 543.661583,91.8185497 C535.834985,100.503704 529.862145,110.568115 525.742884,122.012083 C521.623622,133.456051 519.564022,145.512909 519.564022,158.183016 C519.564022,170.853124 521.623622,182.909981 525.742884,194.35395 C529.862145,205.797918 535.834985,215.81124 543.661583,224.394216 C551.48818,232.977193 561.01383,239.823035 572.238819,244.93195 C583.463807,250.040864 596.078857,252.595283 610.084347,252.595283 C624.089837,252.595283 636.704887,250.040864 647.929875,244.93195 C659.154864,239.823035 668.680514,232.977193 676.507111,224.394216 C684.333709,215.81124 690.306549,205.797918 694.42581,194.35395 C698.545072,182.909981 700.604672,170.853124 700.604672,158.183016 Z M564.669713,30.5554164 C564.669713,26.4682848 566.111433,22.84101 568.994916,19.673483 C571.878399,16.5059561 575.688659,14.9222164 580.42581,14.9222164 C585.162961,14.9222164 588.973221,16.5059561 591.856705,19.673483 C594.740188,22.84101 596.181908,26.4682848 596.181908,30.5554164 C596.181908,34.6425479 594.740188,38.2698227 591.856705,41.4373497 C588.973221,44.6048766 585.162961,46.1886164 580.42581,46.1886164 C575.688659,46.1886164 571.878399,44.6048766 568.994916,41.4373497 C566.111433,38.2698227 564.669713,34.6425479 564.669713,30.5554164 Z M623.986786,30.5554164 C623.986786,26.4682848 625.428506,22.84101 628.311989,19.673483 C631.195473,16.5059561 635.005733,14.9222164 639.742884,14.9222164 C644.480035,14.9222164 648.290295,16.5059561 651.173778,19.673483 C654.057261,22.84101 655.498981,26.4682848 655.498981,30.5554164 C655.498981,34.6425479 654.057261,38.2698227 651.173778,41.4373497 C648.290295,44.6048766 644.480035,46.1886164 639.742884,46.1886164 C635.005733,46.1886164 631.195473,44.6048766 628.311989,41.4373497 C625.428506,38.2698227 623.986786,34.6425479 623.986786,30.5554164 Z" id="Combined-Shape"></path>
                    </g>
                </g>
            </g>
        </g>
    </g>
</svg>