<?xml version="1.0" encoding="utf-8"?>
<!-- Generator: Adobe Illustrator 22.0.1, SVG Export Plug-In . SVG Version: 6.00 Build 0)  -->
<svg version="1.1" id="Layer_1" xmlns="http://www.w3.org/2000/svg" xmlns:xlink="http://www.w3.org/1999/xlink" x="0px" y="0px"
	 viewBox="300 300 600 400" style="enable-background:new 0 0 1200 1000;" xml:space="preserve">
<style type="text/css">
	.st0{fill:#29ABE2;}
	.st1{fill:#333333;}
	.st2{fill:#231F20;}
</style>
<g>
	<g>
		<g>
			<path class="st0" d="M658.6,414.5c1.1,1.2,2.7,1.9,4.4,1.7c3.1,0,5.8-3,5.5-6.1c0-2.3-1.8-3.8-3.3-5.3c-2.2-2.4-4.4-4.7-6.6-7.1
				c-1.4,3.7-4.3,6.7-8,8.3C653.3,408.8,655.9,411.7,658.6,414.5z"/>
			<path class="st0" d="M668.5,367.3c0.4-2.5-1.1-5.2-3.5-6.1c-2.1-0.9-4.7-0.4-6.3,1.3c-4.6,4.8-9.2,9.7-13.8,14.5
				c0.9,0,1.8,0.1,2.7,0.4c3.1,0.6,6,2.4,8.2,4.9c3.5-3.9,7.2-7.6,10.8-11.4C667.6,369.9,668.5,368.7,668.5,367.3z"/>
			<path class="st0" d="M594.3,309.5c0,7.9,0,15.8,0,23.6c-3.5-3.4-7.1-6.7-10.6-10c-1.5-1.3-2.8-3-4.9-3.3
				c-2.7-0.6-5.6,1.1-6.5,3.7c-0.8,2.2-0.1,4.7,1.6,6.2c6.8,6.4,13.5,12.8,20.3,19.1c0,5.9,0,11.9,0,17.8c0.8-0.2,1.7-0.5,2.6-0.6
				l0.1,0c1.2-0.2,2.4-0.3,3.6-0.3c1.3,0,2.6,0.1,3.9,0.3l0.8-1.3c0.2-0.3,0.3-0.6,0.5-0.9c0-5.1,0-10.2,0-15.3
				c1.6-1.5,3.2-3,4.8-4.5c0.1-0.6,0.2-1.2,0.3-1.8c1.2-4.9,4.9-9,9.6-10.7c1.3-0.5,2.7-0.8,4.2-0.8c0.1-0.1,0.3-0.3,0.4-0.4
				c1.1-1,2.2-2.2,2.4-3.7c0.8-3.3-1.9-6.9-5.3-6.9c-2.2-0.2-4.1,1.2-5.5,2.7c-3.6,3.5-7.3,6.9-10.9,10.3c0-7.7,0-15.4,0-23.1
				c9.5-9.5,19.2-18.9,28.7-28.3c1.8-1.8,2.1-4.9,0.7-7c-1.8-3-6.3-3.6-8.8-1.1c-6.9,6.7-13.7,13.5-20.6,20.2c0-11.7,0-23.3,0-35
				c0.1-2.1-1.2-4-3-5c-2.3-1.2-5.4-0.7-7.1,1.4c-1.1,1.2-1.4,2.9-1.4,4.4c0,11.4,0,22.8,0,34.2c-7-6.8-14.1-13.7-21.2-20.5
				c-2.1-2-5.7-1.9-7.7,0.2c-2.3,2.1-2.4,6-0.2,8.1C574.9,290.8,584.6,300.1,594.3,309.5z"/>
			<path class="st0" d="M609.8,445.8c-1.1,0-2.1-0.2-3.1-0.4c3.7,3.5,7.4,6.9,11,10.4c1.1,1.1,2.5,2,4,2c3,0.3,5.9-2.2,6.1-5.1
				c0.2-1.9-0.7-3.8-2.1-5c-1.9-1.8-3.8-3.6-5.7-5.3c-2.7,2.2-6.1,3.5-9.6,3.5C610.3,445.9,610.1,445.8,609.8,445.8z"/>
			<path class="st0" d="M693.5,340.3c-12.7,0-25.4,0-38.1,0c-0.6-0.1-0.9,0.5-1.3,0.8c-5.2,5.3-10.3,10.7-15.5,16
				c2.1-5,2.4-9.3,2.1-12.4c-0.1-1.3-0.4-2.7-0.8-3.9c0-0.1-0.1-0.3-0.1-0.4c-0.1-0.2-0.2-0.5-0.3-0.7c0,0,0,0,0,0
				c2.4-2.5,4.8-5,7.2-7.5c0-13.3,0-26.5,0-39.8c-0.2-2.6,1.7-5.2,4.2-5.9c3.4-1.1,7.2,1.8,7.3,5.4c0,9.4,0,18.9,0,28.3
				c8.8-9.1,17.7-18.3,26.5-27.4c2.2-2.3,6.4-2.2,8.4,0.3c2,2.1,1.8,5.8-0.3,7.8c-9,9.3-17.9,18.6-26.9,27.8c9-0.1,18.1,0,27.1,0
				c2.8-0.1,5.5,2,5.9,4.8C699.6,336.9,696.8,340.3,693.5,340.3z"/>
			<path class="st0" d="M735.4,388c-0.2-2.8-2.8-5.3-5.6-5.2c-11.7,0.1-23.3-0.3-35-0.1c6.7-6.7,13.4-13.4,20-20.2
				c1.1-1.1,1.9-2.5,1.8-4.1c0.1-2.6-1.7-5-4.2-5.7c-2-0.6-4.2,0-5.6,1.5c-9.4,9.5-18.8,18.9-28.2,28.4c-7.6,0-15.1-0.1-22.7,0
				c0.3,0.4,0.6,0.8,0.9,1.2c2.1,3.1,3,6.8,2.5,10.3c6.4,0,12.8,0.1,19.2,0c8.6,8.9,17.2,17.9,25.8,26.8c1.6,1.6,3,3.7,5.4,4
				c3.4,0.7,7-2.3,6.6-5.8c0.1-1.9-1-3.5-2.4-4.7c-6.5-6.7-13-13.5-19.5-20.2c11.6,0,23.1,0.1,34.7,0.2
				C732.7,394.5,735.9,391.4,735.4,388z"/>
			<path class="st0" d="M695.7,438.2c-13.5-0.5-27-0.8-40.5-1.3c-12.1-12.3-24-24.6-36.1-36.9c-1.6,2.5-3.8,4.7-6.3,6.4l0.6,2.7
				c0.2,0.7,0.3,1.4,0.5,2.1c11,11.3,22,22.5,33,33.8c-0.4,12.7-0.8,25.4-1.1,38.1c-0.3,3,2.3,5.9,5.3,6c2.9,0.3,5.9-2.1,6-5.1
				c0.3-4.8,0.3-9.6,0.4-14.4c0.3-4.5,0.3-9,0.4-13.4c8.8,9.1,17.6,18.1,26.4,27.1c2.1,2.4,6.4,2.5,8.5,0.1c2.2-2.1,2.1-5.9-0.1-8
				c-8.7-8.9-17.3-17.8-26.1-26.6c6,0,12,0.5,17.9,0.5c3.6,0,7.1,0.4,10.7,0.3c2.9,0,5.5-2.6,5.5-5.5
				C701.1,441.2,698.7,438.4,695.7,438.2z"/>
			<path class="st0" d="M503.7,339.2c6.3,0.6,12.7,0.3,19,0.7c4.3,0.1,8.5,0.1,12.8,0.3c3.2,0.3,6.3,0,9.5,0.3
				c4.1,4.2,8.2,8.3,12.3,12.5c1.8-3.5,4.9-6.3,8.6-7.6c-4.2-4.3-8.4-8.6-12.6-12.9c0.3-12.8,0.8-25.6,1.1-38.4
				c0.3-3.3-2.9-6.2-6.1-5.9c-3,0.2-5.5,3-5.4,5.9c-0.2,9-0.6,18-0.7,26.9c-8.4-8.6-16.8-17.2-25.1-25.8c-1.3-1.2-2.4-2.8-4.1-3.4
				c-2-0.6-4.4-0.3-5.9,1.2c-2.3,2-2.5,5.9-0.3,8c8.9,9.1,17.8,18.2,26.7,27.3c-9.6-0.2-19.2-0.6-28.9-0.8c-2.6,0.2-4.9,2.3-5.2,4.9
				C498.9,335.6,500.9,338.6,503.7,339.2z"/>
			<path class="st0" d="M634.9,503.7c-1.6,2-4.6,2.8-6.9,1.7c-1.2-0.5-2-1.5-2.9-2.4c-6.4-6.3-12.8-12.6-19.2-18.9
				c0,11.4,0,22.7,0,34.1c0.1,3.1-3,5.9-6.1,5.5c-3.1-0.1-5.5-3-5.4-6c0-11.2-0.1-22.4,0-33.6c-6.9,6.7-13.8,13.4-20.7,20
				c-1.1,1.1-2.5,1.8-4,1.9c-2.4,0.2-4.8-1.5-5.6-3.8c-0.7-2-0.2-4.5,1.3-6c9.7-9.4,19.3-18.7,29-28.1c0-7.8-0.1-15.6,0-23.4
				c-3.8,3.6-7.6,7.1-11.4,10.7c-1.2,1.2-2.7,2.4-4.5,2.5c-3.2,0.4-6.2-2.5-6.1-5.6c-0.1-1.5,0.5-3,1.6-4.1
				c6.7-6.5,13.6-12.8,20.4-19.3l1.2-1.2c-0.4,2.1-0.4,4.3,0.1,6.4c1.1,5.2,5.2,9.5,10.2,11.1c0,7.6,0,15.2,0,22.7
				c9.6,9.6,19.3,18.9,28.9,28.5C636.5,498.3,636.6,501.6,634.9,503.7z"/>
			<path class="st0" d="M520.5,393.5c7.6,0,15.3,0.1,22.9,0c-3.9,4-7.7,8.1-11.6,12.1c-1.8,1.7-2.3,4.6-1.2,6.8
				c1.2,2.4,4.1,3.7,6.6,2.9c1.3-0.3,2.3-1.1,3.1-2.1c0.7-0.7,1.3-1.4,2-2.1c-1.7-2.7-2.6-5.9-2.3-9.1c0.4-7.5,6.7-13.8,14.2-14.1
				c0.4,0,0.7,0,1.1,0c3.5,0,6.9,1.3,9.6,3.6c3.8-1.3,7.9-2.7,12-4l1.3-0.4c0.1-1.7,0.3-3.3,0.7-5c-6.7,0-13.3,0-20-0.1
				c-6.3-6.8-12.7-13.6-19.1-20.3c-1.5-1.7-4.1-2.3-6.2-1.4c-3.6,1.2-4.9,6.3-2.3,9.1c3.9,4.2,7.8,8.4,11.8,12.6
				c-7.8,0.1-15.6,0-23.4,0c-9.5-9.6-18.8-19.3-28.3-28.9c-2.9-2.9-8.4-1.3-9.3,2.7c-0.6,2.1,0.1,4.4,1.6,5.8
				c6.6,6.8,13.3,13.5,19.9,20.3c-11.3-0.2-22.6-0.2-33.9-0.2c-2.6-0.1-5.1,1.9-5.7,4.5c-0.9,3.3,1.9,6.9,5.2,7
				c11.5,0.1,23,0.1,34.4,0.1c-6.8,6.9-13.5,13.9-20.3,20.8c-1.6,1.5-2.2,4-1.4,6c0.9,2.9,4.4,4.6,7.2,3.6c1.7-0.5,2.9-2.1,4.1-3.3
				c8.5-8.7,17-17.4,25.5-26.2C519.6,393.9,519.9,393.4,520.5,393.5z"/>
			<path class="st0" d="M590.1,407.4c-0.6-0.3-1.3-0.7-1.9-1.1c-1.8-1.2-3.4-2.7-4.8-4.4l-1.5,0.5c-1.5,0.5-2.9,1-4.4,1.5
				c-10.7,11.1-21.4,22.2-32.2,33.3c-12.6-0.1-25.1,0-37.7,0c-2.5-0.1-5.2,1.2-6.1,3.7c-1.5,3.3,1.1,7.6,4.7,7.8
				c9.3,0.1,18.6-0.1,28,0.1c-8.9,9.2-17.7,18.3-26.6,27.5c-1.9,2-2,5.5-0.1,7.5c2,2.6,6.2,2.7,8.5,0.4c8.7-9,17.4-17.9,26-27
				c-0.1,9.4,0,18.9,0,28.3c0,3.1,2.8,5.9,5.9,5.6c3,0.1,5.6-2.7,5.6-5.6c0-13.3,0-26.7,0-40c0.2-0.6,0.8-1,1.2-1.4
				C566.6,431.8,578.3,419.6,590.1,407.4z"/>
		</g>
		<g>
			<path class="st1" d="M622.3,336.6c3.4-1.3,7.6-0.4,10.2,2.3c2.7,2.6,3.6,6.8,2.3,10.3c-1.6,4.7-7.1,7.6-11.9,6
				c-3,4.9-5.9,9.8-8.8,14.8c-1.4-0.9-2.8-1.8-4.3-2.5c2.9-4.9,5.8-9.8,8.7-14.7c-2.3-2.4-3.4-5.9-2.6-9.2
				C616.8,340.4,619.2,337.6,622.3,336.6z"/>
			<path class="st1" d="M561.2,358.6c0.6-5.3,6.1-9.4,11.3-8.4c4.3,0.6,7.9,4.5,8.1,8.8c0.2,1.9-0.3,3.9-1.2,5.6
				c2.2,2.1,4.4,4.1,6.6,6.2c-1.2,1.1-2.3,2.4-3.4,3.6c-2.1-2.2-4.3-4.1-6.5-6.2c-2.1,1.2-4.7,1.8-7.1,1.3
				C564.1,368.6,560.5,363.5,561.2,358.6z"/>
			<path class="st1" d="M597.8,371.3c3.6-0.5,7.3-0.1,10.5,1.6c5.6,2.8,9.2,8.9,9.1,15.1c0,6.7-4.4,13.1-10.6,15.5
				c-5,2-11.1,1.4-15.5-1.7c-3.6-2.4-6.3-6.3-7.1-10.6c-1-4.7,0.2-9.8,3.1-13.5C589.8,374.3,593.7,372,597.8,371.3z"/>
			<path class="st1" d="M635.2,388.8c1.6-4.5,6.6-7.4,11.3-6.2c5,0.9,8.5,6.3,7.5,11.3c-0.8,5.4-6.7,9.2-11.9,7.8
				c-3.8-0.8-6.7-4.2-7.4-8c-4.1-0.3-8.1-0.8-12.1-1.2c0.3-1.6,0.5-3.3,0.5-4.9C627.1,388.1,631.2,388.3,635.2,388.8z"/>
			<path class="st1" d="M563.5,397.8c5.1-1.7,10.1-3.5,15.2-5.1c0.2,1.6,0.8,3.1,1.5,4.6c-5,1.7-10.1,3.3-15.1,5.1
				c0.1,2.9-1,5.8-3.1,7.8c-2.7,2.6-6.9,3.4-10.3,2c-3.9-1.4-6.5-5.6-6.2-9.8c0.2-4.8,4.4-8.9,9.2-9.1
				C558.2,393,561.6,394.9,563.5,397.8z"/>
			<path class="st1" d="M603.2,410.2c1.6-0.2,3.2-0.6,4.7-1.1c0.9,4,1.8,7.9,2.7,11.9c2.9,0.2,5.7,1.5,7.5,3.8
				c2.4,3,2.7,7.4,0.8,10.7c-1.7,3.2-5.3,5.2-8.9,5c-4.3-0.1-8.3-3.4-9.1-7.6c-1.1-4.2,1.3-8.8,5.1-10.8
				C605,418.1,604.2,414.1,603.2,410.2z"/>
		</g>
	</g>
	<g>
		<g>
			<path class="st2" d="M379.7,681.6l-28.3,0c-4.6,0-7.5,0.9-8.6,2.6c-0.7,1-1,3.4-1,7c0,1.9,0.9,3.4,2.6,4.5c1.4,0.8,3.8,1.3,7,1.3
				l11.7,0c5,0,9,1,12,3c3,2,4.5,4.8,4.5,8.4l0,8.8c0,3.8-1.5,6.7-4.6,8.8c-3.1,2-7.3,3.1-12.6,3.1l-31.5,0l0-8.1l28.3,0
				c4.7,0,7.6-0.9,8.8-2.8c0.5-1,0.8-3.5,0.8-7.5c0-3.8-3.1-5.7-9.2-5.7l-11.7,0c-4.8,0-8.8-0.9-11.9-2.8c-3.4-2-5.1-4.8-5.1-8.3
				l0-8.6c0-3.9,1.8-7,5.5-9.3c2.6-1.6,6.3-2.4,11.3-2.4l32.2,0L379.7,681.6z"/>
			<path class="st2" d="M465,703.7l-37.4,11l0,1.4c0,2.2,0.8,3.8,2.5,4.8c1.1,0.6,3.1,0.9,5.9,0.9l28.8,0l0,7.2l-30.7,0
				c-5.3,0-9.2-0.8-11.7-2.4c-3.2-1.9-4.8-4.9-4.8-9l0-19.7c0-7.1,5.2-10.6,15.6-10.6l17.1,0c9.7,0,14.5,3.7,14.5,11.2L465,703.7z
				 M455,699.7l0-0.6c0-3.2-2.6-4.8-7.8-4.8l-10.8,0c-6,0-9,1.8-9,5.4l0,8.1L455,699.7z"/>
			<path class="st2" d="M538.3,728.9l-22.1,0c-10.6,0-15.9-3.7-15.9-11l0-20.2c0-7.1,4.5-10.6,13.4-10.6l24.4,0l0,7.2l-20.3,0
				c-2.8,0-4.8,0.4-6,1.1c-1.1,0.8-1.7,2.2-1.7,4.2l0,16.6c0,3.7,2.7,5.5,8.2,5.5l20.1,0L538.3,728.9z"/>
			<path class="st2" d="M582.6,687.2l0,25.9c0,2.1,0.7,3.9,2.2,5.3c1.1,1,3.3,1.6,6.6,1.5l10.4,0c5.8,0,8.6-2.2,8.6-6.6l0-26.1
				l9.8,0l0,28.5c0,8.8-5.1,13.2-15.3,13.2l-16.7,0c-10.2,0-15.3-4.4-15.3-13.2l0-28.5L582.6,687.2z"/>
			<path class="st2" d="M681.6,693.7c-7.5,0-11.9,0.2-13.1,0.4c-2.6,0.8-3.9,2.6-3.9,5.6l0,28.8l-10.1,0l0-30.8
				c0-7.5,5.3-11.3,15.8-11.3l11.3,0L681.6,693.7z"/>
			<path class="st2" d="M725,728.8l-9.8,0l0-41.7l9.8,0L725,728.8z M725,673.5l0,7.3l-9.3,0l0-7.3L725,673.5z"/>
			<path class="st2" d="M785.7,694.7l-12.4,0l0,34.1l-9.8,0l0-55.6l9.8,0l0,14.5l12.4,0L785.7,694.7z"/>
			<path class="st2" d="M855.3,728.7l-18,0c-4.6,0-8.2-1.1-10.8-3.4c-3-2.6-4.4-5.9-4.4-10.1l0-28.1l9.7,0l0,25.6
				c0,4.7,2.5,7.1,7.6,7.1l17.5,0c1.7,0,2.5-0.9,2.5-2.7l0-29.8l9.8,0l0,45.9c0,4.1-1.3,7.5-3.8,10.1c-2.6,2.6-6.1,3.9-10.6,3.9
				l-30.7,0l0-9.3l27.9,0c3.3,0,5.4-0.9,6.4-2.6c0.6-1.1,0.9-3.4,0.9-6.7l0-1.2L855.3,728.7z"/>
		</g>
		<g>
			<path class="st0" d="M487.7,629.4c0,2.8-0.9,5.1-2.8,7c-1.9,1.9-4.2,2.8-7,2.8c-3.9,0-7.1-1.8-9.5-5.5l-18-26.1l-85.4,0l-18,26.1
				c-1.9,2.9-4,4.3-6.3,4.3c-2.3,0-4.4-0.7-6.5-2.2c-2.3-1.6-3.5-3.4-3.5-5.6c0-0.7,0.2-1.3,0.5-1.8l64-98c2.6-4,7.1-6,13.5-6
				c4.7,0,7.9,1.3,9.5,4c0.1,0.2,0.3,0.4,0.4,0.8c0.2,0.3,0.4,0.7,0.7,1.2l67.9,96.1C487.6,627,487.7,628,487.7,629.4z M438.5,591
				l-30.8-45.3L376.8,591L438.5,591z"/>
			<path class="st0" d="M550.9,558.5c0,4.8-2.9,7.2-8.6,7.2c-0.8,0-1.9,0-3.4-0.1c-1.5-0.1-2.6-0.1-3.4-0.1
				c-14.8,0-22.2,3.7-22.2,11.1l0,53.2c0,3.5-1.3,5.8-4,6.7c-1.1,0.4-3.9,0.5-8.4,0.6c-4.6,0-6.8-2.4-6.8-7.3l0-53.1
				c0-11.4,5.9-19.2,17.6-23.3c7.2-2.6,17.9-3.8,32-3.8C548.5,549.4,550.9,552.4,550.9,558.5z"/>
			<path class="st0" d="M645.5,620.7l-35.9,0l-0.4,0l-7,0c-17.6,0-26.4-3.7-26.4-11.1l0-34.2c0-6.5,7.7-9.8,23.2-9.8l10.2,0l1.4,0
				l34.2,0c5,0,7.5-2.7,7.5-8.1c0-5.4-2.5-8.1-7.5-8.1l-34.2,0l-1.4,0l-11.6,0c-27.4,0-41.1,8.9-41.1,26.6l0,34.5
				c0,10.9,5.2,18.4,15.5,22.5c6,2.6,15.9,3.9,29.6,3.9l7.6,0l0.4,0l34.2,0c6,0,8.9-2.4,8.9-7.2
				C652.7,623.7,650.3,620.7,645.5,620.7z"/>
			<path class="st0" d="M861.8,620.6l-35.9,0l-0.4,0l-7,0c-17.6,0-26.4-3.7-26.4-11.1l0-34.2c0-6.5,7.7-9.8,23.2-9.8l10.2,0l1.4,0
				l34.2,0c5,0,7.5-2.7,7.5-8.1c0-5.4-2.5-8.1-7.5-8.1l-34.2,0l-1.4,0l-11.6,0c-27.4,0-41.1,8.9-41.1,26.6l0,34.5
				c0,10.9,5.2,18.4,15.5,22.5c6,2.6,15.9,3.9,29.6,3.9l7.6,0l0.4,0l34.2,0c6,0,8.9-2.4,8.9-7.2C869,623.6,866.6,620.6,861.8,620.6z
				"/>
			<path class="st0" d="M732.4,559c0,4.7-2.4,7.1-7.2,7.1l-30.5,0l0,63.5c0,4.8-2.4,7.2-7.1,7.2c-4.7,0-7.4-0.2-8.2-0.6
				c-2.6-1-3.9-3.2-3.9-6.6l0-63.5c-2.6,0-4.6,0-6.3-0.1c-1.6-0.1-2.8-0.2-3.4-0.3c-3-1-4.6-3.6-4.6-7.6c0-4,1.5-6.5,4.6-7.6
				c0.7-0.1,1.8-0.2,3.4-0.3c1.6-0.1,3.7-0.1,6.3-0.1l0-17.2c0-4.7,2.4-7.1,7.1-7.1c4.7,0,7.4,0.2,8.2,0.6c2.6,0.9,3.9,3.1,3.9,6.5
				l0,17.2l30.5,0C730,550,732.4,553,732.4,559z"/>
			<path class="st0" d="M766.1,537.3c0,3.2-1.3,5.7-4,7.5c-2.3,1.6-5.1,2.4-8.5,2.4c-3.3,0-6.2-0.8-8.5-2.4c-2.7-1.8-4-4.3-4-7.5
				c0-3.2,1.3-5.7,4-7.5c2.3-1.6,5.1-2.4,8.5-2.4c3.3,0,6.2,0.8,8.5,2.4C764.8,531.7,766.1,534.2,766.1,537.3z M763.5,629.6
				c0,4.8-2.4,7.2-7.2,7.2c-4.7,0-7.4-0.2-8.2-0.6c-2.5-0.9-3.7-3.1-3.7-6.6l0-73.5c0-4.7,2.4-7.1,7.2-7.1c4.6,0,7.3,0.2,8.1,0.6
				c2.6,0.9,3.8,3.1,3.8,6.5L763.5,629.6z"/>
		</g>
	</g>
</g>
</svg>
