<?xml version="1.0" standalone="no"?>
<!DOCTYPE svg PUBLIC "-//W3C//DTD SVG 20010904//EN"
 "http://www.w3.org/TR/2001/REC-SVG-20010904/DTD/svg10.dtd">
<svg version="1.0" xmlns="http://www.w3.org/2000/svg"
 width="400.000000pt" height="400.000000pt" viewBox="0 0 400.000000 400.000000"
 preserveAspectRatio="xMidYMid meet">

<g transform="translate(0.000000,400.000000) scale(0.100000,-0.100000)"
fill="#5f8dd3" stroke="none">
<path d="M1856 2986 c-82 -31 -72 -10 -472 -1016 -414 -1039 -396 -980 -328
-1039 39 -35 91 -41 148 -17 39 16 45 30 177 384 l82 222 462 0 462 0 103
-272 c57 -150 109 -286 117 -301 41 -82 203 -64 232 26 14 42 46 -43 -403
1087 -184 464 -344 856 -354 870 -44 59 -149 85 -226 56z m111 -336 c17 -52
99 -273 182 -491 83 -218 151 -401 151 -408 0 -8 -102 -11 -375 -11 -244 0
-375 4 -375 10 0 6 68 184 151 398 83 213 168 437 188 499 19 62 39 109 42
105 3 -4 20 -50 36 -102z"/>
</g>
</svg>
