<?xml version="1.0" standalone="no"?>
<!DOCTYPE svg PUBLIC "-//W3C//DTD SVG 20010904//EN"
 "http://www.w3.org/TR/2001/REC-SVG-20010904/DTD/svg10.dtd">
<svg version="1.0" xmlns="http://www.w3.org/2000/svg"
 width="400.000000pt" height="400.000000pt" viewBox="0 0 400.000000 400.000000"
 preserveAspectRatio="xMidYMid meet">

<g transform="translate(0.000000,400.000000) scale(0.100000,-0.100000)"
fill="#5f8dd3" stroke="none">
<path d="M1317 2966 c-88 -24 -138 -79 -157 -170 -7 -35 -10 -313 -8 -881 3
-775 4 -833 21 -870 25 -55 62 -92 116 -112 41 -16 89 -18 481 -18 386 0 444
2 513 18 214 51 354 176 413 372 28 91 26 277 -4 371 -50 162 -163 269 -334
315 l-43 11 71 34 c151 72 234 187 255 356 23 174 -25 331 -130 432 -67 63
-134 99 -239 128 -72 20 -105 22 -492 25 -323 2 -426 -1 -463 -11z m897 -235
c122 -49 177 -140 177 -289 0 -144 -60 -245 -179 -300 l-57 -27 -382 -3 -383
-3 0 278 c0 283 6 344 38 363 11 6 142 9 372 7 347 -2 356 -3 414 -26z m-42
-852 c172 -37 269 -150 284 -332 18 -213 -88 -364 -284 -406 -68 -14 -715 -15
-742 -1 -35 18 -40 75 -40 418 l0 332 365 0 c232 0 383 -4 417 -11z"/>
</g>
</svg>
