<?xml version="1.0" encoding="UTF-8" standalone="no"?>
<!DOCTYPE svg PUBLIC "-//W3C//DTD SVG 1.1//EN" "http://www.w3.org/Graphics/SVG/1.1/DTD/svg11.dtd">
<svg width="100%" height="100%" viewBox="0 0 460 439" version="1.1" xmlns="http://www.w3.org/2000/svg" xmlns:xlink="http://www.w3.org/1999/xlink" xml:space="preserve" xmlns:serif="http://www.serif.com/" style="fill-rule:evenodd;clip-rule:evenodd;stroke-linejoin:round;stroke-miterlimit:1.41421;">
    <g id="Artboard1" transform="matrix(0.638002,0,0,0.590574,-303.575,-90.5024)">
        <rect x="475.822" y="153.245" width="720.867" height="742.123" style="fill:none;"/>
        <g id="Layer-2" serif:id="Layer 2" transform="matrix(6.53081,0,0,7.05528,-482.571,-224.515)">
            <g transform="matrix(1,0,0,1,197.044,89.2119)">
                <path d="M0,0C0,5.886 -3.673,10.914 -8.852,12.917C-10.4,13.515 -12.083,13.843 -13.843,13.843C-21.489,13.843 -27.687,7.646 -27.687,0C-27.687,-7.645 -21.489,-13.843 -13.843,-13.843C-6.198,-13.843 0,-7.645 0,0" style="fill:white;fill-rule:nonzero;"/>
            </g>
            <g transform="matrix(69.2322,-18.6378,-18.6378,-69.2322,174.342,113.674)">
                <path d="M0,0.366C0,0.18 0,-0.125 0,-0.311C0,-0.497 0.132,-0.573 0.293,-0.48C0.454,-0.387 0.718,-0.235 0.879,-0.142C1.04,-0.049 1.04,0.103 0.879,0.197C0.718,0.29 0.454,0.442 0.293,0.535C0.267,0.55 0.242,0.56 0.218,0.567C0.093,0.601 0,0.522 0,0.366Z" style="fill:url(#_Linear1);fill-rule:nonzero;"/>
            </g>
            <g transform="matrix(1,0,0,1,210.185,73.1825)">
                <path d="M0,47.443C-1.47,48.011 -3.066,48.322 -4.736,48.322C-11.991,48.322 -17.873,42.441 -17.873,35.187C-17.873,27.931 -11.991,22.05 -4.736,22.05C2.519,22.05 8.399,27.931 8.399,35.187C8.399,40.772 4.914,45.543 0,47.443M-4.736,9.087C-10.651,9.087 -14.122,9.718 -18.552,12.966L-18.552,-4.524L-31.505,-15.182L-31.505,34.333L-31.428,34.333C-31.457,34.84 -31.505,35.341 -31.505,35.855C-31.505,50.64 -19.522,62.625 -4.736,62.625C10.046,62.625 22.032,50.64 22.032,35.855C22.032,21.073 10.046,9.087 -4.736,9.087" style="fill:white;fill-rule:nonzero;"/>
            </g>
        </g>
    </g>
    <defs>
        <linearGradient id="_Linear1" x1="0" y1="0" x2="1" y2="0" gradientUnits="userSpaceOnUse" gradientTransform="matrix(1,5.55112e-17,5.55112e-17,-1,-2.22045e-16,0.0273565)"><stop offset="0" style="stop-color:rgb(145,38,143);stop-opacity:1"/><stop offset="0.11" style="stop-color:rgb(145,38,143);stop-opacity:1"/><stop offset="0.92" style="stop-color:rgb(238,40,124);stop-opacity:1"/><stop offset="1" style="stop-color:rgb(238,40,124);stop-opacity:1"/></linearGradient>
    </defs>
</svg>
