<?xml version="1.0" encoding="UTF-8" standalone="no"?>
<svg
   xmlns:dc="http://purl.org/dc/elements/1.1/"
   xmlns:cc="http://creativecommons.org/ns#"
   xmlns:rdf="http://www.w3.org/1999/02/22-rdf-syntax-ns#"
   xmlns:svg="http://www.w3.org/2000/svg"
   xmlns="http://www.w3.org/2000/svg"
   xmlns:sodipodi="http://sodipodi.sourceforge.net/DTD/sodipodi-0.dtd"
   xmlns:inkscape="http://www.inkscape.org/namespaces/inkscape"
   version="1.0"
   width="125.000000pt"
   height="125.000000pt"
   viewBox="0 0 125.000000 125.000000"
   preserveAspectRatio="xMidYMid meet"
   id="svg64"
   sodipodi:docname="badrapicon.svg"
   inkscape:version="0.92.2 5c3e80d, 2017-08-06">
  <metadata
     id="metadata70">
    <rdf:RDF>
      <cc:Work
         rdf:about="">
        <dc:format>image/svg+xml</dc:format>
        <dc:type
           rdf:resource="http://purl.org/dc/dcmitype/StillImage" />
      </cc:Work>
    </rdf:RDF>
  </metadata>
  <defs
     id="defs68" />
  <sodipodi:namedview
     pagecolor="#ffffff"
     bordercolor="#666666"
     borderopacity="1"
     objecttolerance="10"
     gridtolerance="10"
     guidetolerance="10"
     inkscape:pageopacity="0"
     inkscape:pageshadow="2"
     inkscape:window-width="640"
     inkscape:window-height="480"
     id="namedview66"
     showgrid="false"
     inkscape:zoom="2.424"
     inkscape:cx="83.333333"
     inkscape:cy="83.333333"
     inkscape:window-x="0"
     inkscape:window-y="23"
     inkscape:window-maximized="0"
     inkscape:current-layer="svg64" />
  <g
     transform="translate(0.000000,125.000000) scale(0.100000,-0.100000)"
     fill="#000000"
     stroke="none"
     id="g62"
     style="fill:#5f8dd3">
    <path
       d="M365 648 l0 -348 186 0 c211 0 262 10 315 61 85 82 60 242 -44 286 l-35 14 32 20 c47 28 71 75 71 137 0 91 -44 143 -136 161 -27 6 -125 11 -219 13 l-170 3 0 -347z m366 203 c31 -25 32 -83 1 -114 -20 -19 -35 -22 -127 -25 l-105 -4 0 81 0 81 104 0 c87 0 108 -3 127 -19z m15 -274 c38 -33 38 -101 0 -134 -25 -21 -37 -23 -137 -23 l-109 0 0 90 0 90 109 0 c100 0 112 -2 137 -23z"
       id="path60"
       style="fill:#5f8dd3" />
  </g>
</svg>
