<?xml version="1.0" encoding="UTF-8" standalone="no"?>
<svg
   xmlns:dc="http://purl.org/dc/elements/1.1/"
   xmlns:cc="http://creativecommons.org/ns#"
   xmlns:rdf="http://www.w3.org/1999/02/22-rdf-syntax-ns#"
   xmlns:svg="http://www.w3.org/2000/svg"
   xmlns="http://www.w3.org/2000/svg"
   xmlns:sodipodi="http://sodipodi.sourceforge.net/DTD/sodipodi-0.dtd"
   xmlns:inkscape="http://www.inkscape.org/namespaces/inkscape"
   version="1.0"
   width="125.000000pt"
   height="125.000000pt"
   viewBox="0 0 125.000000 125.000000"
   preserveAspectRatio="xMidYMid meet"
   id="svg3849"
   sodipodi:docname="cyblemicon.svg"
   inkscape:version="0.92.2 5c3e80d, 2017-08-06">
  <metadata
     id="metadata3855">
    <rdf:RDF>
      <cc:Work
         rdf:about="">
        <dc:format>image/svg+xml</dc:format>
        <dc:type
           rdf:resource="http://purl.org/dc/dcmitype/StillImage" />
      </cc:Work>
    </rdf:RDF>
  </metadata>
  <defs
     id="defs3853" />
  <sodipodi:namedview
     pagecolor="#ffffff"
     bordercolor="#666666"
     borderopacity="1"
     objecttolerance="10"
     gridtolerance="10"
     guidetolerance="10"
     inkscape:pageopacity="0"
     inkscape:pageshadow="2"
     inkscape:window-width="640"
     inkscape:window-height="480"
     id="namedview3851"
     showgrid="false"
     inkscape:zoom="2.292"
     inkscape:cx="83.333333"
     inkscape:cy="83.333333"
     inkscape:window-x="0"
     inkscape:window-y="23"
     inkscape:window-maximized="0"
     inkscape:current-layer="svg3849" />
  <g
     transform="translate(0.000000,125.000000) scale(0.100000,-0.100000)"
     fill="#000000"
     stroke="none"
     id="g3847"
     style="fill:#5f8dd3">
    <path
       d="M577 1000 c-150 -38 -237 -166 -237 -350 0 -159 67 -279 182 -331 43 -19 70 -23 143 -23 109 0 178 26 230 87 31 36 71 125 60 135 -6 6 -85 21 -116 22 -22 0 -28 -6 -33 -30 -8 -40 -44 -76 -94 -91 -150 -45 -263 116 -222 316 35 167 246 213 307 67 11 -27 18 -33 36 -28 12 3 41 8 65 12 23 4 45 10 47 15 3 4 -2 26 -11 48 -21 53 -100 123 -155 140 -58 18 -154 23 -202 11z"
       id="path3845"
       style="fill:#5f8dd3" />
  </g>
</svg>
