<?xml version="1.0" standalone="no"?>
<!DOCTYPE svg PUBLIC "-//W3C//DTD SVG 20010904//EN"
 "http://www.w3.org/TR/2001/REC-SVG-20010904/DTD/svg10.dtd">
<svg version="1.0" xmlns="http://www.w3.org/2000/svg"
 width="400.000000pt" height="400.000000pt" viewBox="0 0 400.000000 400.000000"
 preserveAspectRatio="xMidYMid meet">

<g transform="translate(0.000000,400.000000) scale(0.100000,-0.100000)"
fill="#5f8dd3" stroke="none">
<path d="M1825 3006 c-305 -50 -535 -233 -661 -528 -120 -280 -133 -680 -32
-983 119 -355 375 -568 738 -615 329 -43 630 80 800 326 66 95 120 216 120
268 0 84 -112 141 -197 100 -21 -11 -43 -30 -50 -44 -6 -14 -32 -68 -57 -120
-49 -104 -105 -170 -190 -225 -169 -108 -426 -109 -613 -3 -168 94 -283 274
-333 518 -19 92 -21 128 -17 285 5 191 18 266 71 395 119 297 390 450 706 400
159 -26 288 -124 368 -280 55 -106 56 -108 103 -120 86 -23 179 33 179 109 0
48 -58 165 -122 249 -91 117 -245 212 -408 252 -110 26 -298 34 -405 16z"/>
</g>
</svg>
