<svg xmlns="http://www.w3.org/2000/svg" viewBox="10 10 128.02 47.84"><defs><style>.cls-1{fill:#00c8ff;}.cls-2{fill:none;}.cls-3{fill:#231f20;}</style></defs><title>logo_text_blue</title><g id="Layer_2" data-name="Layer 2"><g id="Layer_1-2" data-name="Layer 1"><path class="cls-1" d="M24.38,44.48a1,1,0,0,0-1-1H12.5v0c.31.69.66,1.37,1,2h7.35l-4.25,4.26c.46.5.94,1,1.45,1.45L22.33,47V54.3a21.47,21.47,0,0,0,2,1h0Z"/><path class="cls-1" d="M43.46,23.35a1,1,0,0,0,1,1H55.33v0a21.47,21.47,0,0,0-1-2H47l4.26-4.25c-.46-.51-1-1-1.45-1.45L45.5,20.88V13.53c-.65-.37-1.33-.72-2-1h0Z"/><path class="cls-1" d="M38.3,47.46a1,1,0,0,0-.78-.1,1,1,0,0,0-.62.47l-5.43,9.4,0,0c.74.07,1.5.11,2.26.12L37.43,51,39,56.81c.67-.15,1.33-.32,2-.52l-1.56-5.82,6.37,3.68c.66-.39,1.29-.81,1.9-1.25h0Z"/><path class="cls-1" d="M29.54,20.38a1,1,0,0,0,.51.13,1,1,0,0,0,.89-.51l5.42-9.4h0a21.25,21.25,0,0,0-2.26-.12L30.4,16.84,28.84,11c-.67.15-1.33.32-2,.53l1.56,5.81-6.36-3.67a20.22,20.22,0,0,0-1.91,1.25h0Z"/><path class="cls-1" d="M51,37.43l6.37-3.67c0-.76,0-1.52-.12-2.26l0,0-9.4,5.43a1,1,0,0,0-.37,1.4l5.42,9.39h0c.44-.61.86-1.24,1.25-1.9l-3.68-6.37L56.29,41c.2-.65.37-1.31.52-2Z"/><path class="cls-1" d="M20,30.94a1,1,0,0,0,.38-1.4L15,20.14h0a20.22,20.22,0,0,0-1.25,1.91l3.68,6.36-5.82-1.56c-.21.65-.38,1.31-.53,2l5.81,1.56-6.36,3.68a21.25,21.25,0,0,0,.12,2.26v0Z"/><path class="cls-1" d="M44.13,33.36a3.16,3.16,0,0,0-3.45,1.31l-1.53-.41A5.18,5.18,0,0,0,38.28,31l1.12-1.11A3.18,3.18,0,1,0,38,28.44l-1.12,1.11a5.26,5.26,0,0,0-3.25-.87l-.41-1.52a3.18,3.18,0,1,0-2,.53l.41,1.52a5.07,5.07,0,0,0-2.39,2.39l-1.52-.41a3.17,3.17,0,1,0-.53,2l1.52.41a5.26,5.26,0,0,0,.87,3.25L28.44,38a3.17,3.17,0,1,0,1.45,1.45L31,38.28a5.18,5.18,0,0,0,3.26.87l.41,1.53a3.16,3.16,0,0,0-1.31,3.45,3.18,3.18,0,1,0,6.14-1.65,3.15,3.15,0,0,0-2.85-2.33l-.41-1.53a5.15,5.15,0,0,0,2.38-2.38l1.53.41a3.15,3.15,0,0,0,2.33,2.85,3.18,3.18,0,1,0,1.65-6.14Z"/><rect class="cls-2" width="148.02" height="67.84"/><path class="cls-3" d="M76.88,29.09l-1-3.71h-4.6l-1,3.71H67.84L72,14.85h3.22l4.17,14.24Zm-2.72-9.67-.45-2.27h-.28L73,19.42l-1.08,3.9h3.36Z"/><path class="cls-3" d="M81,29.09V18.44h2.47v2.18h.28A2.87,2.87,0,0,1,84.56,19a2.11,2.11,0,0,1,1.52-.56h.53V21h-.82a3.14,3.14,0,0,0-1.72.37,1.41,1.41,0,0,0-.56,1.28v6.47Z"/><path class="cls-3" d="M92,29.34A4.08,4.08,0,0,1,88.68,28a6.54,6.54,0,0,1-1.13-4.23,6.53,6.53,0,0,1,1.13-4.22A4.08,4.08,0,0,1,92,18.19a3.68,3.68,0,0,1,3.84,2.68l-2,.89a2.16,2.16,0,0,0-.58-1.17,1.75,1.75,0,0,0-1.23-.4c-1.23,0-1.84.74-1.84,2.21v2.73c0,1.47.61,2.21,1.84,2.21a1.86,1.86,0,0,0,1.3-.41A2.55,2.55,0,0,0,94,25.66l1.92.92A3.77,3.77,0,0,1,92,29.34Z"/><path class="cls-3" d="M100.51,29.09a2.56,2.56,0,0,1-1.86-.57,2.5,2.5,0,0,1-.57-1.82V20.42H96.67v-2h.74a.86.86,0,0,0,.72-.25,1.23,1.23,0,0,0,.19-.77V15.54h2.23v2.9h1.92v2h-1.92v6.69h1.75v2Z"/><path class="cls-3" d="M105.51,16.76a1.58,1.58,0,0,1-1.12-.33,1.19,1.19,0,0,1-.35-.91v-.41a1.19,1.19,0,0,1,.35-.91,2.07,2.07,0,0,1,2.24,0,1.23,1.23,0,0,1,.35.91v.41a1.23,1.23,0,0,1-.35.91A1.58,1.58,0,0,1,105.51,16.76Zm-1.23,1.68h2.47V29.09h-2.47Z"/><path class="cls-3" d="M113.1,29.34A4.08,4.08,0,0,1,109.8,28a6.54,6.54,0,0,1-1.13-4.23,6.53,6.53,0,0,1,1.13-4.22,4.08,4.08,0,0,1,3.3-1.35,4,4,0,0,1,2.5.72,3.91,3.91,0,0,1,1.34,2l-2,.89a2.31,2.31,0,0,0-.58-1.17,1.78,1.78,0,0,0-1.24-.4c-1.22,0-1.84.74-1.84,2.21v2.73c0,1.47.62,2.21,1.84,2.21a1.9,1.9,0,0,0,1.31-.41,2.55,2.55,0,0,0,.67-1.27l1.92.92A3.77,3.77,0,0,1,113.1,29.34Z"/><path class="cls-3" d="M72.92,50.13a6.41,6.41,0,0,1-2.81-.58A5.73,5.73,0,0,1,68,47.83l1.67-1.62a4.31,4.31,0,0,0,1.43,1.28,3.85,3.85,0,0,0,1.84.44c1.52,0,2.28-.7,2.28-2.08a1.88,1.88,0,0,0-.4-1.31,2.51,2.51,0,0,0-1.35-.65l-1.25-.25a5.24,5.24,0,0,1-2.85-1.39,3.79,3.79,0,0,1-.92-2.73,3.82,3.82,0,0,1,1.21-3.08,5.13,5.13,0,0,1,3.46-1,6.13,6.13,0,0,1,2.62.5,4.71,4.71,0,0,1,1.87,1.56L76,39A3.67,3.67,0,0,0,74.75,38a3.47,3.47,0,0,0-1.65-.36,2.42,2.42,0,0,0-1.59.43A1.73,1.73,0,0,0,71,39.42a1.69,1.69,0,0,0,.4,1.22,2.37,2.37,0,0,0,1.29.63l1.25.27a8.73,8.73,0,0,1,1.76.55,3.64,3.64,0,0,1,1.19.82,3,3,0,0,1,.67,1.15,5.17,5.17,0,0,1,.21,1.56A4.33,4.33,0,0,1,76.52,49,5.14,5.14,0,0,1,72.92,50.13Z"/><path class="cls-3" d="M83.83,50.13a5.3,5.3,0,0,1-1.9-.33,3.84,3.84,0,0,1-1.48-1,4.57,4.57,0,0,1-1-1.73,8,8,0,0,1-.34-2.48,6.43,6.43,0,0,1,1.15-4.22,4.71,4.71,0,0,1,6.6,0,6.43,6.43,0,0,1,1.15,4.22v.59H81.75v.7a2.33,2.33,0,0,0,.59,1.67,2.17,2.17,0,0,0,1.64.61,2.67,2.67,0,0,0,1.48-.38,3.19,3.19,0,0,0,1-1.09l1.35,1.41a4.35,4.35,0,0,1-1.6,1.5A4.88,4.88,0,0,1,83.83,50.13Zm-.22-9.24c-1.24,0-1.86.73-1.86,2.2v.53h3.72v-.53C85.47,41.62,84.85,40.89,83.61,40.89Z"/><path class="cls-3" d="M93.79,50.13a4.07,4.07,0,0,1-3.29-1.34,6.48,6.48,0,0,1-1.13-4.23,6.43,6.43,0,0,1,1.13-4.22,4.71,4.71,0,0,1,5.79-.64,4,4,0,0,1,1.34,2l-2,.9A2.16,2.16,0,0,0,95,41.39a1.71,1.71,0,0,0-1.24-.4c-1.22,0-1.83.73-1.83,2.2v2.74c0,1.47.61,2.2,1.83,2.2a1.84,1.84,0,0,0,1.31-.41,2.51,2.51,0,0,0,.67-1.26l1.92.92A3.76,3.76,0,0,1,93.79,50.13Z"/><path class="cls-3" d="M105.1,48.11h-.29a2.51,2.51,0,0,1-2.59,2,2.62,2.62,0,0,1-2.19-1,4.38,4.38,0,0,1-.77-2.78V39.23h2.47V46c0,1.41.52,2.11,1.55,2.11a1.91,1.91,0,0,0,1.29-.45,1.55,1.55,0,0,0,.53-1.25V39.23h2.47V49.89H105.1Z"/><path class="cls-3" d="M110.16,49.89V39.23h2.47v2.19h.29a2.8,2.8,0,0,1,.76-1.62,2.09,2.09,0,0,1,1.52-.57h.53v2.53h-.81a3.27,3.27,0,0,0-1.73.37,1.44,1.44,0,0,0-.56,1.29v6.47Z"/><path class="cls-3" d="M118.57,37.56a1.53,1.53,0,0,1-1.12-.34,1.19,1.19,0,0,1-.35-.9v-.41a1.21,1.21,0,0,1,.35-.91,2,2,0,0,1,2.24,0,1.21,1.21,0,0,1,.35.91v.41a1.19,1.19,0,0,1-.35.9A1.53,1.53,0,0,1,118.57,37.56Zm-1.22,1.67h2.46V49.89h-2.46Z"/><path class="cls-3" d="M125.32,49.89a2.55,2.55,0,0,1-1.85-.57,2.5,2.5,0,0,1-.57-1.82V41.21h-1.41v-2h.73A.9.9,0,0,0,123,39a1.24,1.24,0,0,0,.19-.78V36.34h2.23v2.89h1.91v2h-1.91v6.7h1.75v2Z"/><path class="cls-3" d="M135.08,39.23h2.47l-4.06,12.88a2.56,2.56,0,0,1-1,1.47,3.41,3.41,0,0,1-1.78.39h-1.67V52h2.1l.43-1.51L128,39.23h2.51L132.14,45l.57,2.8H133l.57-2.82Z"/></g></g></svg>
