<svg id="Layer_1" data-name="Layer 1" xmlns="http://www.w3.org/2000/svg" viewBox="0 0 572.66 151.03"><defs><style>.cls-1{fill:#e12027;}</style></defs><title>remod-logo-v7-black</title><path d="M564.6,104.12c-24.76,0-44.83,21.56-44.83,47.78s20,47.68,44.72,47.68h42V104.12Zm-.11,77c-15.48,0-28-13.1-28-29.5s12.59-29.49,28.07-29.49h29.84v59Z" transform="translate(-38.67 -48.85)"/><rect x="555.5" y="0.71" width="17.16" height="149.93"/><path d="M38.67,48.85H74.58c20,0,33.12,4,41.94,12.16,7.1,6.64,11.4,16.81,11.4,28.53,0,19.47-12,29-27.1,34.29v.66c11,4,17.64,18.14,21.08,33.62,4.73,20.79,8.17,35.17,11.18,40.92H113.72c-2.36-4.43-5.59-17-9.46-35.61C100,142.85,92,131,75,130.38H57.38V199H38.67Zm18.71,66.93H76.52c20,0,32.69-7.22,32.69-24.25,0-19.24-13.43-26.28-33.21-26.28-9,0-13.63,0-18.62.19Z" transform="translate(-38.67 -48.85)"/><polygon points="256.81 79.41 279.95 150.44 299.35 150.5 322.66 79.49 344.08 150.26 362.35 150.38 329.6 42.03 313.41 42.27 289.69 114.47 266.22 42.43 250.56 42.42 217.46 150.36 235.03 150.26 256.81 79.41"/><path d="M455.4,104.12A47.88,47.88,0,1,0,503.27,152,47.87,47.87,0,0,0,455.4,104.12Zm0,77.41a29.94,29.94,0,1,1,29.94-29.94A29.94,29.94,0,0,1,455.37,181.53Z" transform="translate(-38.67 -48.85)"/><path class="cls-1" d="M196,121.54a29.65,29.65,0,0,1,28.86,22.88l15.72-9.09a47.43,47.43,0,0,0-92,16.27c0,1.59.08,3.16.23,4.71l18-10.4A29.66,29.66,0,0,1,196,121.54Z" transform="translate(-38.67 -48.85)"/><path class="cls-1" d="M243,145.11l-17.64,10.2A29.65,29.65,0,0,1,166.89,157l-16,9.24a47.42,47.42,0,0,0,92.52-14.68A48,48,0,0,0,243,145.11Z" transform="translate(-38.67 -48.85)"/><line class="cls-1" x1="123.46" y1="121.46" x2="190.78" y2="82.44"/><rect class="cls-1" x="156.88" y="141.7" width="77.81" height="18.19" transform="translate(-87.89 69.66) rotate(-30.1)"/></svg>