<?xml version="1.0" encoding="UTF-8" standalone="no"?>
<!DOCTYPE svg PUBLIC "-//W3C//DTD SVG 1.1//EN" "http://www.w3.org/Graphics/SVG/1.1/DTD/svg11.dtd">
<svg width="100%" height="100%" viewBox="0 0 1024 1024" version="1.1" xmlns="http://www.w3.org/2000/svg" xmlns:xlink="http://www.w3.org/1999/xlink" xml:space="preserve" xmlns:serif="http://www.serif.com/" style="fill-rule:evenodd;clip-rule:evenodd;stroke-linecap:round;stroke-linejoin:round;stroke-miterlimit:1.5;">
    <g transform="matrix(-0.289366,1.3077,-0.753776,-0.166795,780.424,698.123)">
        <path d="M156.309,322.744L156.309,408.194" style="fill:none;stroke:black;stroke-width:1.22px;"/>
    </g>
    <g transform="matrix(-0.385555,1.28264,-0.73933,-0.222239,771.829,830.952)">
        <path d="M156.309,322.744L156.309,408.194" style="fill:none;stroke:black;stroke-width:2.44px;"/>
    </g>
    <g transform="matrix(-1.31993,-0.227163,0.13094,-0.760824,468.165,1164.14)">
        <path d="M156.309,322.744L156.309,408.194" style="fill:none;stroke:black;stroke-width:1.22px;"/>
    </g>
    <g transform="matrix(-1.19083,0.612983,-0.353331,-0.686408,662.781,895.38)">
        <path d="M156.309,322.744L156.309,408.194" style="fill:none;stroke:black;stroke-width:1.22px;"/>
    </g>
    <g transform="matrix(1.05349,0.827032,-0.778956,0.992248,486.791,-35.1862)">
        <path d="M156.309,322.744L156.309,408.194" style="fill:none;stroke:black;stroke-width:4.1px;"/>
    </g>
    <g transform="matrix(1.05349,0.827032,-0.461142,0.587411,300.681,83.0522)">
        <path d="M156.309,322.744L156.309,408.194" style="fill:none;stroke:black;stroke-width:4.92px;"/>
    </g>
    <g transform="matrix(-0.412827,1.27412,-1.72727,-0.559651,1123.37,526.202)">
        <path d="M156.309,322.744L156.309,408.194" style="fill:none;stroke:black;stroke-width:2.93px;"/>
    </g>
    <g transform="matrix(-0.837727,1.045,-0.772456,-0.61924,1031.55,519.07)">
        <path d="M156.309,322.744L156.309,408.194" style="fill:none;stroke:black;stroke-width:3.96px;"/>
    </g>
    <g transform="matrix(-0.715869,1.13197,-1.51475,-0.957943,1242.61,638.712)">
        <path d="M156.309,322.744L156.309,408.194" style="fill:none;stroke:black;stroke-width:2.95px;"/>
    </g>
    <g transform="matrix(0.306283,1.30384,-1.56362,0.367307,1103.69,184.783)">
        <path d="M156.309,322.744L156.309,408.194" style="fill:none;stroke:black;stroke-width:3.16px;"/>
    </g>
    <g transform="matrix(-0.867855,1.02012,-0.794356,-0.675789,1037.37,723.444)">
        <path d="M156.309,322.744L156.309,408.194" style="fill:none;stroke:black;stroke-width:3.89px;"/>
    </g>
    <g transform="matrix(1.32293,0.209007,-0.174031,1.10154,501.418,278.551)">
        <path d="M156.309,322.744L156.309,408.194" style="fill:none;stroke:black;stroke-width:2.7px;"/>
    </g>
    <g transform="matrix(1.32494,-0.195852,0.184973,1.25134,524.083,222.66)">
        <path d="M156.309,322.744L156.309,408.194" style="fill:none;stroke:black;stroke-width:3.07px;"/>
    </g>
    <g transform="matrix(1.25839,0.458546,-0.262861,0.721372,696.42,400.717)">
        <path d="M156.309,322.744L156.309,408.194" style="fill:none;stroke:black;stroke-width:3.66px;"/>
    </g>
    <g transform="matrix(1.25617,0.464611,-0.467902,1.26506,748.154,108.39)">
        <path d="M156.309,322.744L156.309,408.194" style="fill:none;stroke:black;stroke-width:2.98px;"/>
    </g>
    <g transform="matrix(0.823316,-1.05639,0.997715,0.777583,252.321,430.467)">
        <path d="M156.309,322.744L156.309,408.194" style="fill:none;stroke:black;stroke-width:3.07px;"/>
    </g>
    <g transform="matrix(1.15592,-0.676515,0.410721,0.701772,419.032,112.907)">
        <path d="M156.309,322.744L156.309,408.194" style="fill:none;stroke:black;stroke-width:6.62px;"/>
    </g>
    <g transform="matrix(0.830583,1.05069,-0.637887,0.504257,780.794,-90.2426)">
        <path d="M156.309,322.744L156.309,408.194" style="fill:none;stroke:black;stroke-width:6.62px;"/>
    </g>
    <g transform="matrix(1.33225,-0.137621,0.0835517,0.808823,484.78,-91.3496)">
        <path d="M156.309,322.744L156.309,408.194" style="fill:none;stroke:black;stroke-width:6.62px;"/>
    </g>
    <g transform="matrix(0.417023,-1.27276,1.23748,0.405465,130.62,249.451)">
        <path d="M156.309,322.744L156.309,408.194" style="fill:none;stroke:black;stroke-width:5.55px;"/>
    </g>
    <g transform="matrix(0.96559,-0.928145,1.25647,1.30716,54.1244,-180.252)">
        <path d="M156.309,322.744L156.309,408.194" style="fill:none;stroke:black;stroke-width:4.6px;"/>
    </g>
    <g transform="matrix(0.559853,-1.21671,1.15147,0.529836,160.872,114.594)">
        <path d="M156.309,322.744L156.309,408.194" style="fill:none;stroke:black;stroke-width:5.62px;"/>
    </g>
    <g transform="matrix(0.405578,-1.27645,1.20801,0.383832,54.796,136.339)">
        <path d="M156.309,322.744L156.309,408.194" style="fill:none;stroke:black;stroke-width:5.62px;"/>
    </g>
    <g transform="matrix(1.04648,-0.835877,0.79106,0.990375,104.798,-96.4111)">
        <path d="M156.309,322.744L156.309,408.194" style="fill:none;stroke:black;stroke-width:5.11px;"/>
    </g>
    <g transform="matrix(0.390864,-1.28103,1.21235,0.369907,46.3902,230.83)">
        <path d="M156.309,322.744L156.309,408.194" style="fill:none;stroke:black;stroke-width:5.11px;"/>
    </g>
    <g transform="matrix(-0.404248,-1.27687,1.79985,-0.569819,-186.757,498.712)">
        <path d="M156.309,322.744L156.309,408.194" style="fill:none;stroke:black;stroke-width:4.07px;"/>
    </g>
    <g transform="matrix(-0.934951,-0.959001,1.54897,-1.51012,-0.651708,845.354)">
        <path d="M156.309,322.744L156.309,408.194" style="fill:none;stroke:black;stroke-width:3.71px;"/>
    </g>
    <g transform="matrix(-1.33933,0.00170988,-0.00126365,-0.989802,440.185,600.212)">
        <path d="M156.309,322.744L156.309,408.194" style="fill:none;stroke:black;stroke-width:5.1px;"/>
    </g>
    <g transform="matrix(-1.31162,0.271054,-0.183128,-0.886152,509.03,633.807)">
        <path d="M156.309,322.744L156.309,408.194" style="fill:none;stroke:black;stroke-width:4.67px;"/>
    </g>
    <g transform="matrix(-0.530707,-1.2297,1.73336,-0.748073,-122.929,647.871)">
        <path d="M156.309,322.744L156.309,408.194" style="fill:none;stroke:black;stroke-width:4.07px;"/>
    </g>
    <g transform="matrix(-1.28589,0.374586,-0.325487,-1.11734,655.547,512.78)">
        <path d="M156.309,322.744L156.309,408.194" style="fill:none;stroke:black;stroke-width:5.31px;"/>
    </g>
    <g transform="matrix(-1.23443,-0.519615,0.815289,-1.93685,174.685,1002.26)">
        <path d="M156.309,322.744L156.309,408.194" style="fill:none;stroke:black;stroke-width:3.03px;"/>
    </g>
    <g transform="matrix(-0.92326,-0.970262,0.868251,-0.82619,128.75,711.643)">
        <path d="M156.309,322.744L156.309,408.194" style="fill:none;stroke:black;stroke-width:4.2px;"/>
    </g>
    <g transform="matrix(-1.27163,0.42046,-0.654396,-1.97913,818.524,971.518)">
        <path d="M156.309,322.744L156.309,408.194" style="fill:none;stroke:black;stroke-width:3.04px;"/>
    </g>
    <g transform="matrix(-0.677778,1.15518,-1.7979,-1.05488,1092.97,563.166)">
        <path d="M156.309,322.744L156.309,408.194" style="fill:none;stroke:black;stroke-width:3.04px;"/>
    </g>
    <g transform="matrix(0.726384,0,0,0.663526,115.361,-103.744)">
        <circle cx="682.858" cy="300.644" r="37.696"/>
    </g>
    <g transform="matrix(0.751124,0,0,0.686126,138.271,716.303)">
        <circle cx="682.858" cy="300.644" r="37.696"/>
    </g>
    <g transform="matrix(1.29894,0,0,1.18654,-215.086,148.393)">
        <circle cx="682.858" cy="300.644" r="37.696"/>
    </g>
    <g transform="matrix(0.560934,0,0,0.512394,52.6411,307.125)">
        <circle cx="682.858" cy="300.644" r="37.696" style="fill:rgb(26,100,0);"/>
    </g>
    <g transform="matrix(0.560934,0,0,0.512394,126.885,265.566)">
        <circle cx="682.858" cy="300.644" r="37.696" style="fill:rgb(26,100,0);"/>
    </g>
    <g transform="matrix(0.560934,0,0,0.512394,117.788,-0.542305)">
        <circle cx="682.858" cy="300.644" r="37.696"/>
    </g>
    <g transform="matrix(0.560934,0,0,0.512394,213.385,281.324)">
        <circle cx="682.858" cy="300.644" r="37.696" style="stroke:black;stroke-width:8.69px;"/>
    </g>
    <g transform="matrix(0.560934,0,0,0.512394,117.557,387.219)">
        <circle cx="682.858" cy="300.644" r="37.696"/>
    </g>
    <g transform="matrix(0.560934,0,0,0.512394,186.857,438.506)">
        <circle cx="682.858" cy="300.644" r="37.696"/>
    </g>
    <g transform="matrix(0.560934,0,0,0.512394,406.206,424.616)">
        <circle cx="682.858" cy="300.644" r="37.696"/>
    </g>
    <g transform="matrix(0.560934,0,0,0.512394,338.15,464.117)">
        <circle cx="682.858" cy="300.644" r="37.696"/>
    </g>
    <g transform="matrix(0.560934,0,0,0.512394,268.558,509.957)">
        <circle cx="682.858" cy="300.644" r="37.696"/>
    </g>
    <g transform="matrix(0.560934,0,0,0.512394,424.345,553.601)">
        <circle cx="682.858" cy="300.644" r="37.696"/>
    </g>
    <g transform="matrix(0.560934,0,0,0.512394,369.193,549.948)">
        <circle cx="682.858" cy="300.644" r="37.696"/>
    </g>
    <g transform="matrix(0.560934,0,0,0.512394,400.66,613.98)">
        <circle cx="682.858" cy="300.644" r="37.696"/>
    </g>
    <g transform="matrix(0.560934,0,0,0.512394,253.715,608.282)">
        <circle cx="682.858" cy="300.644" r="37.696"/>
    </g>
    <g transform="matrix(0.560934,0,0,0.512394,336.873,737.803)">
        <circle cx="682.858" cy="300.644" r="37.696"/>
    </g>
    <g transform="matrix(0.645175,0,0,0.589345,-140.092,715.018)">
        <circle cx="682.858" cy="300.644" r="37.696"/>
    </g>
    <g transform="matrix(0.560934,0,0,0.512394,-69.3194,663.467)">
        <circle cx="682.858" cy="300.644" r="37.696"/>
    </g>
    <g transform="matrix(0.560934,0,0,0.512394,-152.391,607.965)">
        <circle cx="682.858" cy="300.644" r="37.696"/>
    </g>
    <g transform="matrix(0.560934,0,0,0.512394,-133.5,678.889)">
        <circle cx="682.858" cy="300.644" r="37.696" style="fill:rgb(26,100,0);"/>
    </g>
    <g transform="matrix(0.560934,0,0,0.512394,191.615,689.534)">
        <circle cx="682.858" cy="300.644" r="37.696"/>
    </g>
    <g transform="matrix(0.560934,0,0,0.512394,117.557,387.219)">
        <circle cx="682.858" cy="300.644" r="37.696"/>
    </g>
    <g transform="matrix(0.560934,0,0,0.512394,43.3396,682.036)">
        <circle cx="682.858" cy="300.644" r="37.696"/>
    </g>
    <g transform="matrix(0.560934,0,0,0.512394,13.7918,780.785)">
        <circle cx="682.858" cy="300.644" r="37.696"/>
    </g>
    <g transform="matrix(0.560934,0,0,0.512394,115.525,695.08)">
        <circle cx="682.858" cy="300.644" r="37.696"/>
    </g>
    <g transform="matrix(0.560934,0,0,0.512394,-21.6458,614.437)">
        <circle cx="682.858" cy="300.644" r="37.696"/>
    </g>
    <g transform="matrix(0.560934,0,0,0.512394,-52.901,557.082)">
        <circle cx="682.858" cy="300.644" r="37.696"/>
    </g>
    <g transform="matrix(0.560934,0,0,0.512394,117.788,-0.542305)">
        <circle cx="682.858" cy="300.644" r="37.696"/>
    </g>
    <g transform="matrix(0.560934,0,0,0.512394,117.788,-0.542305)">
        <circle cx="682.858" cy="300.644" r="37.696"/>
    </g>
    <g transform="matrix(0.487818,0,0,0.445605,-19.002,269.517)">
        <circle cx="682.858" cy="300.644" r="37.696"/>
    </g>
    <g transform="matrix(0.560934,0,0,0.512394,-51.6084,149.015)">
        <circle cx="682.858" cy="300.644" r="37.696"/>
    </g>
    <g transform="matrix(0.560934,0,0,0.512394,20.4558,84.8586)">
        <circle cx="682.858" cy="300.644" r="37.696"/>
    </g>
    <g transform="matrix(0.62356,0,0,0.5696,-102.67,-54.9024)">
        <circle cx="682.858" cy="300.644" r="37.696"/>
    </g>
    <g transform="matrix(0.62356,0,0,0.5696,-196.611,17.3806)">
        <circle cx="682.858" cy="300.644" r="37.696" style="fill:rgb(26,100,0);"/>
    </g>
    <g transform="matrix(0.509683,0,0,0.465578,-101.716,252.773)">
        <circle cx="682.858" cy="300.644" r="37.696"/>
    </g>
    <g transform="matrix(0.509683,0,0,0.465578,-72.4234,309.929)">
        <circle cx="682.858" cy="300.644" r="37.696"/>
    </g>
    <g transform="matrix(0.62356,0,0,0.5696,-85.5565,323.648)">
        <circle cx="682.858" cy="300.644" r="37.696" style="fill:rgb(26,100,0);"/>
    </g>
    <g transform="matrix(0.560934,0,0,0.512394,-34.5833,60.6644)">
        <circle cx="682.858" cy="300.644" r="37.696"/>
    </g>
    <g transform="matrix(1.32143,0,0,1.32143,-173.919,-174.777)">
        <circle cx="682.858" cy="300.644" r="37.696"/>
    </g>
    <g transform="matrix(0.965759,0,0,0.965759,-429.562,12.0967)">
        <circle cx="682.858" cy="300.644" r="37.696"/>
    </g>
    <g transform="matrix(0.965759,0,0,0.965759,-252.691,109.876)">
        <circle cx="682.858" cy="300.644" r="37.696"/>
    </g>
    <g transform="matrix(0.965759,0,0,0.965759,54.6276,503.485)">
        <circle cx="682.858" cy="300.644" r="37.696" style="fill:rgb(26,100,0);"/>
    </g>
    <g transform="matrix(0.414392,0,0,0.414392,495.315,705.742)">
        <circle cx="682.858" cy="300.644" r="37.696"/>
    </g>
    <g transform="matrix(0.414392,0,0,0.414392,307.204,820.962)">
        <circle cx="682.858" cy="300.644" r="37.696"/>
    </g>
    <g transform="matrix(0.252971,0,0,0.252971,457.547,726.185)">
        <circle cx="682.858" cy="300.644" r="37.696"/>
    </g>
    <g transform="matrix(0.403612,0,0,0.403612,405.476,604.105)">
        <circle cx="682.858" cy="300.644" r="37.696" style="fill:rgb(26,100,0);"/>
    </g>
    <g transform="matrix(0.965759,0,0,0.965759,-410.643,385.233)">
        <circle cx="682.858" cy="300.644" r="37.696"/>
    </g>
    <g transform="matrix(0.965759,0,0,0.965759,-152.27,666.762)">
        <circle cx="682.858" cy="300.644" r="37.696"/>
    </g>
    <g transform="matrix(0.965759,0,0,0.965759,-153.918,-224.67)">
        <circle cx="682.858" cy="300.644" r="37.696"/>
    </g>
    <g transform="matrix(0.560934,0,0,0.512394,388.093,145.059)">
        <circle cx="682.858" cy="300.644" r="37.696"/>
    </g>
    <g transform="matrix(0.560934,0,0,0.512394,334.715,-13.1423)">
        <circle cx="682.858" cy="300.644" r="37.696"/>
    </g>
    <g transform="matrix(0.560934,0,0,0.512394,251.681,139.81)">
        <circle cx="682.858" cy="300.644" r="37.696"/>
    </g>
    <g transform="matrix(0.560934,0,0,0.512394,208.159,24.618)">
        <circle cx="682.858" cy="300.644" r="37.696"/>
    </g>
    <g transform="matrix(0.560934,0,0,0.512394,248.944,80.6895)">
        <circle cx="682.858" cy="300.644" r="37.696" style="fill:rgb(26,100,0);"/>
    </g>
    <g transform="matrix(0.560934,0,0,0.512394,307.907,150.459)">
        <circle cx="682.858" cy="300.644" r="37.696"/>
    </g>
</svg>
