<?xml version="1.0" standalone="no"?>
<!DOCTYPE svg PUBLIC "-//W3C//DTD SVG 20010904//EN"
 "http://www.w3.org/TR/2001/REC-SVG-20010904/DTD/svg10.dtd">
<svg version="1.0" xmlns="http://www.w3.org/2000/svg"
 width="1680.000000pt" height="1680.000000pt" viewBox="0 0 1680.000000 1680.000000"
 preserveAspectRatio="xMidYMid meet">

<g transform="translate(0.000000,1680.000000) scale(0.100000,-0.100000)"
fill="#000000" stroke="none">
<path d="M8380 15079 c-1730 -52 -3155 -529 -4215 -1411 -133 -111 -366 -338
-477 -467 -462 -534 -723 -1122 -815 -1836 -22 -173 -25 -703 -5 -885 70 -622
229 -1109 507 -1555 314 -503 756 -901 1384 -1244 219 -120 655 -321 697 -321
12 0 14 229 14 1645 l0 1645 587 0 587 0 -46 48 c-124 128 -198 273 -239 467
-22 99 -16 335 9 430 63 233 243 461 498 631 258 171 683 315 1119 378 454 66
1052 73 1550 20 726 -78 1438 -276 2182 -610 476 -213 890 -454 1271 -738
l142 -106 180 0 180 0 -2 1517 -3 1516 -70 29 c-318 131 -826 294 -1270 408
-866 223 -1679 357 -2515 415 -219 15 -824 36 -945 33 -33 -1 -170 -5 -305 -9z"/>
<path d="M8115 10091 c-3 -2 -5 -33 -5 -68 l0 -63 -907 -2 -908 -3 -3 -437 -2
-438 790 0 790 0 0 -320 0 -320 -790 0 -790 0 0 -685 0 -684 58 -17 c31 -8 86
-24 122 -34 306 -87 667 -168 1219 -275 561 -109 1080 -220 1426 -306 500
-125 852 -293 1088 -518 143 -137 231 -275 283 -446 26 -83 28 -103 28 -265 1
-246 -31 -385 -126 -544 -116 -197 -445 -427 -798 -559 -280 -105 -711 -172
-1335 -208 -765 -44 -1705 97 -2605 393 -881 289 -1612 666 -2331 1205 l-178
133 -186 0 -185 0 0 -1578 0 -1578 196 -78 c864 -342 1863 -630 2659 -766 930
-159 2212 -212 3200 -134 999 79 1875 292 2625 639 806 373 1497 936 1932
1575 340 499 540 1051 610 1685 20 186 17 761 -6 945 -48 392 -130 708 -265
1015 -382 870 -1191 1516 -2465 1969 -86 31 -163 56 -171 56 -13 0 -15 -147
-15 -1250 l0 -1250 -350 0 -350 0 0 190 c0 212 -4 223 -55 143 -136 -215 -404
-364 -705 -392 -131 -12 -345 3 -464 33 -180 46 -336 143 -427 266 -84 113
-134 238 -171 426 -21 106 -21 139 -25 1087 l-4 977 371 0 370 0 0 -787 c0
-812 5 -952 40 -1090 39 -152 123 -260 238 -304 79 -31 288 -39 382 -15 247
62 363 228 400 568 6 58 10 402 10 862 0 719 -1 765 -17 770 -98 31 -576 143
-943 220 -889 188 -1250 262 -1255 257z"/>
</g>
</svg>
