<?xml version="1.0" standalone="no"?>
<!DOCTYPE svg PUBLIC "-//W3C//DTD SVG 20010904//EN"
 "http://www.w3.org/TR/2001/REC-SVG-20010904/DTD/svg10.dtd">
<svg version="1.0" xmlns="http://www.w3.org/2000/svg"
 width="1680.000000pt" height="1680.000000pt" viewBox="0 0 1680.000000 1680.000000"
 preserveAspectRatio="xMidYMid meet">

<g transform="translate(0.000000,1680.000000) scale(0.100000,-0.100000)"
fill="#000000" stroke="none">
<path d="M0 8400 l0 -8400 8400 0 8400 0 0 8400 0 8400 -8400 0 -8400 0 0
-8400z m9565 6655 c881 -60 1675 -188 2560 -415 435 -111 884 -253 1233 -389
l132 -52 -2 -1512 -3 -1512 -170 -2 c-117 -1 -178 2 -192 10 -12 7 -64 44
-116 84 -774 588 -1882 1074 -2910 1277 -871 172 -1871 161 -2560 -28 -146
-41 -365 -120 -484 -177 -187 -89 -415 -272 -534 -428 -61 -80 -130 -222 -155
-316 -29 -107 -27 -368 4 -490 32 -128 106 -272 192 -372 l71 -83 -586 0 -585
0 0 -1645 c0 -905 -2 -1645 -4 -1645 -18 0 -330 140 -501 225 -838 415 -1375
914 -1720 1600 -230 457 -345 925 -375 1531 -30 593 70 1154 291 1645 369 820
1114 1525 2134 2020 833 404 1784 628 2925 689 244 13 1084 4 1355 -15z m-745
-5110 c806 -168 1050 -221 1299 -285 106 -28 195 -50 198 -50 2 0 2 -381 0
-847 -3 -770 -5 -855 -21 -923 -68 -288 -218 -420 -496 -437 -266 -16 -418 77
-486 296 -41 131 -44 203 -44 1074 l0 837 -381 0 -381 0 5 -947 c3 -818 6
-962 21 -1053 25 -162 52 -256 106 -367 117 -241 318 -372 640 -418 263 -37
492 -6 706 95 137 66 227 147 356 322 16 22 17 14 18 -169 l0 -193 360 0 360
0 0 1251 0 1250 23 -6 c80 -25 456 -168 581 -222 1038 -448 1707 -1042 2039
-1813 282 -652 361 -1513 211 -2295 -138 -721 -481 -1354 -1034 -1905 -900
-899 -2174 -1440 -3800 -1615 -1120 -120 -2625 -59 -3700 151 -755 147 -1703
431 -2490 747 l-135 54 0 1574 0 1574 180 3 180 2 180 -136 c836 -630 1801
-1089 2870 -1364 907 -233 1654 -290 2580 -195 639 66 1035 203 1390 480 240
188 337 369 365 685 17 197 -9 356 -84 515 -162 342 -554 610 -1140 780 -263
76 -912 220 -1531 340 -684 132 -1071 221 -1447 331 -17 5 -18 47 -18 690 l0
684 785 0 785 0 0 320 0 320 -785 0 -785 0 0 435 0 435 910 0 910 0 0 71 c0
69 1 71 23 66 12 -3 317 -67 677 -142z"/>
</g>
</svg>
