<?xml version="1.0" encoding="UTF-8" standalone="no"?>
<svg
   xmlns:dc="http://purl.org/dc/elements/1.1/"
   xmlns:cc="http://creativecommons.org/ns#"
   xmlns:rdf="http://www.w3.org/1999/02/22-rdf-syntax-ns#"
   xmlns:svg="http://www.w3.org/2000/svg"
   xmlns="http://www.w3.org/2000/svg"
   viewBox="300 300 987.4 522.52"
   height="1122.52"
   width="1587.4"
   xml:space="preserve"
   id="svg2"
   version="1.1"><metadata
     id="metadata8"><rdf:RDF><cc:Work
         rdf:about=""><dc:format>image/svg+xml</dc:format><dc:type
           rdf:resource="http://purl.org/dc/dcmitype/StillImage" /></cc:Work></rdf:RDF></metadata><defs
     id="defs6"><clipPath
       id="clipPath18"
       clipPathUnits="userSpaceOnUse"><path
         id="path16"
         d="M 0,841.89 H 1190.551 V 0 H 0 Z" /></clipPath></defs><g
     transform="matrix(1.3333333,0,0,-1.3333333,0,1122.52)"
     id="g10"><g
       id="g12"><g
         clip-path="url(#clipPath18)"
         id="g14"><g
           transform="translate(706.0635,496.5714)"
           id="g20"><path
             id="path22"
             style="fill:#1d1d1b;fill-opacity:1;fill-rule:nonzero;stroke:none"
             d="m 0,0 c 0,-66.04 -53.536,-119.576 -119.576,-119.576 -66.04,0 -119.576,53.536 -119.576,119.576 0,66.04 53.536,119.576 119.576,119.576 C -53.536,119.576 0,66.04 0,0" /></g><g
           transform="translate(651.4961,476.2711)"
           id="g24"><path
             id="path26"
             style="fill:#ffffff;fill-opacity:1;fill-rule:nonzero;stroke:none"
             d="m 0,0 -63.416,63.416 c -1.614,1.613 -2.701,3.73 -2.843,6.008 -0.163,2.618 0.782,5.108 2.619,6.944 1.837,1.837 4.327,2.782 6.946,2.618 2.277,-0.143 4.394,-1.231 6.007,-2.844 l 18.866,-18.866 c 7.029,-7.029 18.426,-7.029 25.457,0 l -31.82,31.819 c -5.941,5.942 -14.163,8.773 -22.692,7.677 -4.606,-0.591 -9.011,-2.405 -12.697,-5.229 -7.151,-5.478 -11.025,-13.773 -10.683,-22.618 0.269,-6.947 3.361,-13.487 8.277,-18.403 l 63.25,-63.25 c 3.51,-3.509 3.51,-9.219 0,-12.728 -3.508,-3.51 -9.22,-3.508 -12.727,0 l -82.732,82.732 c -7.03,-7.029 -7.03,-18.426 0,-25.456 l 69.562,-69.563 c 5.255,-5.255 12.355,-8.415 19.786,-8.347 8.332,0.076 16.068,3.902 21.271,10.679 2.827,3.683 4.644,8.086 5.241,12.691 C 8.778,-14.182 5.947,-5.947 0,0" /></g><g
           transform="translate(517.8516,482.6354)"
           id="g28"><path
             id="path30"
             style="fill:#ffffff;fill-opacity:1;fill-rule:nonzero;stroke:none"
             d="M 0,0 34.455,-34.456 H 0 c 0,-9.94 8.06,-18 18,-18 H 77.912 L 0,25.456 C -7.029,18.427 -7.03,7.03 0,0" /></g><g
           transform="translate(356.2651,281.2013)"
           id="g32"><path
             id="path34"
             style="fill:#1d1d1b;fill-opacity:1;fill-rule:nonzero;stroke:none"
             d="m 0,0 -41.054,6.483 c -6.482,1.008 -10.082,4.322 -10.082,10.804 v 1.44 c 0,7.203 3.6,10.804 10.803,10.804 H 5.762 c 8.751,0 15.845,7.095 15.845,15.845 h -67.703 c -13.683,0 -23.047,-9.362 -23.047,-23.048 v -9.362 c 0,-12.245 7.922,-20.168 21.607,-22.328 l 41.054,-6.483 C 0,-16.853 3.603,-20.166 3.603,-26.648 V -28.81 C 3.603,-36.013 0,-39.612 -7.201,-39.612 l -46.097,-0.002 c -8.751,0 -15.845,-7.094 -15.845,-15.845 h 67.704 c 13.685,0 23.046,9.362 23.046,23.048 v 10.084 C 21.607,-10.082 13.686,-2.161 0,0" /></g><path
           id="path36"
           style="fill:#1d1d1b;fill-opacity:1;fill-rule:nonzero;stroke:none"
           d="m 405.819,225.742 h 18.007 v 100.835 h -18.007 z" /><g
           transform="translate(482.1113,310.7325)"
           id="g38"><path
             id="path40"
             style="fill:#1d1d1b;fill-opacity:1;fill-rule:nonzero;stroke:none"
             d="m 0,0 h 48.258 c 8.751,0 15.845,7.095 15.845,15.845 H -5.764 c -13.682,0 -23.047,-9.363 -23.047,-23.048 v -54.739 c 0,-13.686 9.365,-23.048 23.047,-23.048 h 69.867 v 58.34 H 46.096 V -69.144 H 0 c -7.204,0 -10.804,3.6 -10.804,10.803 v 47.536 C -10.804,-3.602 -7.204,0 0,0" /></g><g
           transform="translate(653.0146,252.5743)"
           id="g42"><path
             id="path44"
             style="fill:#1d1d1b;fill-opacity:1;fill-rule:nonzero;stroke:none"
             d="M 0,0 -59.061,74.003 H -77.789 V -26.832 h 18.007 v 73.986 l 59.06,-73.986 H 18.007 V 74.003 H 0 Z" /></g><g
           transform="translate(809.0762,326.5773)"
           id="g46"><path
             id="path48"
             style="fill:#1d1d1b;fill-opacity:1;fill-rule:nonzero;stroke:none"
             d="m 0,0 v -15.845 h 38.174 v -84.99 h 18.008 v 84.99 h 38.171 l 0,15.845 z" /></g><g
           transform="translate(700.9912,225.7423)"
           id="g50"><path
             id="path52"
             style="fill:#1d1d1b;fill-opacity:1;fill-rule:nonzero;stroke:none"
             d="M 0,0 H 85.235 V 15.847 H 18.008 V 42.495 H 82.107 V 58.34 H 18.008 v 26.65 h 67.227 v 15.845 H 0 Z" /></g><g
           transform="translate(925.1279,324.5392)"
           id="g54"><path
             id="path56"
             style="fill:#1d1d1b;fill-opacity:1;fill-rule:nonzero;stroke:none"
             d="M 0,0 H -5.344 V -13.813 H -7.518 V 0 h -5.321 V 2.038 H 0 Z" /></g><g
           transform="translate(945.3262,310.7267)"
           id="g58"><path
             id="path60"
             style="fill:#1d1d1b;fill-opacity:1;fill-rule:nonzero;stroke:none"
             d="M 0,0 H -2.174 V 12.975 L -7.201,1.721 h -2.4 l -5.027,11.254 V 0 h -2.174 v 15.851 h 3.261 l 5.14,-11.503 5.14,11.503 H 0 Z" /></g></g></g></g></svg>